<svg xmlns="http://www.w3.org/2000/svg" xmlns:xlink="http://www.w3.org/1999/xlink" width="500" zoomAndPan="magnify" viewBox="0 0 375 374.999991" height="500" preserveAspectRatio="xMidYMid meet" version="1.0"><defs><g/></defs><g fill="#243b4c" fill-opacity="1"><g transform="translate(33.929335, 237.971597)"><g><path d="M 179.152344 0 L 215.191406 0 L 164.121094 -154.441406 L 128.085938 -154.441406 L 110.582031 -101.519531 L 93.078125 -154.441406 L 56.835938 -154.441406 L 5.765625 0 L 41.800781 0 L 53.335938 -34.183594 C 62.808594 -63.21875 39.539062 -88.339844 53.746094 -130.96875 L 59.101562 -147.441406 L 107.902344 0 L 144.148438 0 L 112.847656 -94.3125 L 130.351562 -147.441406 Z M 179.152344 0 "/></g></g></g><g fill="#243b4c" fill-opacity="1"><g transform="translate(122.310364, 237.971597)"><g><path d="M 179.152344 0 L 215.191406 0 L 164.121094 -154.441406 L 128.085938 -154.441406 L 110.582031 -101.519531 L 93.078125 -154.441406 L 56.835938 -154.441406 L 5.765625 0 L 41.800781 0 L 53.335938 -34.183594 C 62.808594 -63.21875 39.539062 -88.339844 53.746094 -130.96875 L 59.101562 -147.441406 L 107.902344 0 L 144.148438 0 L 112.847656 -94.3125 L 130.351562 -147.441406 Z M 179.152344 0 "/></g></g></g><g fill="#243b4c" fill-opacity="1"><g transform="translate(41.457848, 275.177327)"><g><path d="M 16.984375 0 L 16.96875 -9.90625 L 12.109375 -1.75 L 10.375 -1.75 L 5.546875 -9.703125 L 5.546875 0 L 1.953125 0 L 1.953125 -16.515625 L 5.125 -16.515625 L 11.296875 -6.25 L 17.390625 -16.515625 L 20.53125 -16.515625 L 20.578125 0 Z M 16.984375 0 "/></g></g></g><g fill="#243b4c" fill-opacity="1"><g transform="translate(66.687458, 275.177327)"><g><path d="M 1.953125 -16.515625 L 5.78125 -16.515625 L 5.78125 0 L 1.953125 0 Z M 1.953125 -16.515625 "/></g></g></g><g fill="#243b4c" fill-opacity="1"><g transform="translate(77.133624, 275.177327)"><g><path d="M 9.859375 0.28125 C 8.179688 0.28125 6.660156 -0.0820312 5.296875 -0.8125 C 3.929688 -1.539062 2.859375 -2.550781 2.078125 -3.84375 C 1.304688 -5.144531 0.921875 -6.613281 0.921875 -8.25 C 0.921875 -9.894531 1.304688 -11.363281 2.078125 -12.65625 C 2.859375 -13.957031 3.929688 -14.972656 5.296875 -15.703125 C 6.660156 -16.429688 8.191406 -16.796875 9.890625 -16.796875 C 11.316406 -16.796875 12.609375 -16.539062 13.765625 -16.03125 C 14.921875 -15.53125 15.894531 -14.8125 16.6875 -13.875 L 14.234375 -11.609375 C 13.109375 -12.898438 11.722656 -13.546875 10.078125 -13.546875 C 9.054688 -13.546875 8.144531 -13.320312 7.34375 -12.875 C 6.539062 -12.425781 5.914062 -11.800781 5.46875 -11 C 5.019531 -10.195312 4.796875 -9.28125 4.796875 -8.25 C 4.796875 -7.226562 5.019531 -6.316406 5.46875 -5.515625 C 5.914062 -4.710938 6.539062 -4.085938 7.34375 -3.640625 C 8.144531 -3.191406 9.054688 -2.96875 10.078125 -2.96875 C 11.722656 -2.96875 13.109375 -3.625 14.234375 -4.9375 L 16.6875 -2.671875 C 15.894531 -1.710938 14.914062 -0.976562 13.75 -0.46875 C 12.59375 0.03125 11.296875 0.28125 9.859375 0.28125 Z M 9.859375 0.28125 "/></g></g></g><g fill="#243b4c" fill-opacity="1"><g transform="translate(97.1289, 275.177327)"><g><path d="M 17.109375 -16.515625 L 17.109375 0 L 13.28125 0 L 13.28125 -6.765625 L 5.78125 -6.765625 L 5.78125 0 L 1.953125 0 L 1.953125 -16.515625 L 5.78125 -16.515625 L 5.78125 -10 L 13.28125 -10 L 13.28125 -16.515625 Z M 17.109375 -16.515625 "/></g></g></g><g fill="#243b4c" fill-opacity="1"><g transform="translate(118.892528, 275.177327)"><g><path d="M 14.75 -3.0625 L 14.75 0 L 1.953125 0 L 1.953125 -16.515625 L 14.4375 -16.515625 L 14.4375 -13.453125 L 5.75 -13.453125 L 5.75 -9.859375 L 13.421875 -9.859375 L 13.421875 -6.890625 L 5.75 -6.890625 L 5.75 -3.0625 Z M 14.75 -3.0625 "/></g></g></g><g fill="#243b4c" fill-opacity="1"><g transform="translate(137.425971, 275.177327)"><g><path d="M 1.953125 -16.515625 L 5.78125 -16.515625 L 5.78125 -3.109375 L 14.0625 -3.109375 L 14.0625 0 L 1.953125 0 Z M 1.953125 -16.515625 "/></g></g></g><g fill="#243b4c" fill-opacity="1"><g transform="translate(154.379682, 275.177327)"><g><path d="M 1.953125 -16.515625 L 5.78125 -16.515625 L 5.78125 -3.109375 L 14.0625 -3.109375 L 14.0625 0 L 1.953125 0 Z M 1.953125 -16.515625 "/></g></g></g><g fill="#243b4c" fill-opacity="1"><g transform="translate(171.333393, 275.177327)"><g><path d="M 14.75 -3.0625 L 14.75 0 L 1.953125 0 L 1.953125 -16.515625 L 14.4375 -16.515625 L 14.4375 -13.453125 L 5.75 -13.453125 L 5.75 -9.859375 L 13.421875 -9.859375 L 13.421875 -6.890625 L 5.75 -6.890625 L 5.75 -3.0625 Z M 14.75 -3.0625 "/></g></g></g><g fill="#243b4c" fill-opacity="1"><g transform="translate(189.866836, 275.177327)"><g/></g></g><g fill="#243b4c" fill-opacity="1"><g transform="translate(199.251997, 275.177327)"><g><path d="M 16.984375 0 L 16.96875 -9.90625 L 12.109375 -1.75 L 10.375 -1.75 L 5.546875 -9.703125 L 5.546875 0 L 1.953125 0 L 1.953125 -16.515625 L 5.125 -16.515625 L 11.296875 -6.25 L 17.390625 -16.515625 L 20.53125 -16.515625 L 20.578125 0 Z M 16.984375 0 "/></g></g></g><g fill="#243b4c" fill-opacity="1"><g transform="translate(224.481607, 275.177327)"><g><path d="M 12.828125 -3.53125 L 5.171875 -3.53125 L 3.703125 0 L -0.21875 0 L 7.15625 -16.515625 L 10.921875 -16.515625 L 18.3125 0 L 14.296875 0 Z M 11.625 -6.4375 L 9.015625 -12.765625 L 6.390625 -6.4375 Z M 11.625 -6.4375 "/></g></g></g><g fill="#243b4c" fill-opacity="1"><g transform="translate(245.254955, 275.177327)"><g><path d="M 5.375 -13.40625 L 0.09375 -13.40625 L 0.09375 -16.515625 L 14.484375 -16.515625 L 14.484375 -13.40625 L 9.203125 -13.40625 L 9.203125 0 L 5.375 0 Z M 5.375 -13.40625 "/></g></g></g><g fill="#243b4c" fill-opacity="1"><g transform="translate(262.53876, 275.177327)"><g><path d="M 5.375 -13.40625 L 0.09375 -13.40625 L 0.09375 -16.515625 L 14.484375 -16.515625 L 14.484375 -13.40625 L 9.203125 -13.40625 L 9.203125 0 L 5.375 0 Z M 5.375 -13.40625 "/></g></g></g><g fill="#243b4c" fill-opacity="1"><g transform="translate(279.822564, 275.177327)"><g><path d="M 14.75 -3.0625 L 14.75 0 L 1.953125 0 L 1.953125 -16.515625 L 14.4375 -16.515625 L 14.4375 -13.453125 L 5.75 -13.453125 L 5.75 -9.859375 L 13.421875 -9.859375 L 13.421875 -6.890625 L 5.75 -6.890625 L 5.75 -3.0625 Z M 14.75 -3.0625 "/></g></g></g><g fill="#243b4c" fill-opacity="1"><g transform="translate(298.356017, 275.177327)"><g><path d="M 12.484375 0 L 9.296875 -4.59375 L 5.78125 -4.59375 L 5.78125 0 L 1.953125 0 L 1.953125 -16.515625 L 9.109375 -16.515625 C 10.566406 -16.515625 11.832031 -16.269531 12.90625 -15.78125 C 13.988281 -15.289062 14.820312 -14.597656 15.40625 -13.703125 C 15.988281 -12.804688 16.28125 -11.742188 16.28125 -10.515625 C 16.28125 -9.296875 15.984375 -8.238281 15.390625 -7.34375 C 14.804688 -6.457031 13.96875 -5.78125 12.875 -5.3125 L 16.59375 0 Z M 12.40625 -10.515625 C 12.40625 -11.453125 12.101562 -12.164062 11.5 -12.65625 C 10.90625 -13.15625 10.035156 -13.40625 8.890625 -13.40625 L 5.78125 -13.40625 L 5.78125 -7.640625 L 8.890625 -7.640625 C 10.035156 -7.640625 10.90625 -7.890625 11.5 -8.390625 C 12.101562 -8.898438 12.40625 -9.609375 12.40625 -10.515625 Z M 12.40625 -10.515625 "/></g></g></g><g fill="#243b4c" fill-opacity="1"><g transform="translate(318.398466, 275.177327)"><g><path d="M 12.828125 -3.53125 L 5.171875 -3.53125 L 3.703125 0 L -0.21875 0 L 7.15625 -16.515625 L 10.921875 -16.515625 L 18.3125 0 L 14.296875 0 Z M 11.625 -6.4375 L 9.015625 -12.765625 L 6.390625 -6.4375 Z M 11.625 -6.4375 "/></g></g></g></svg>